<svg version="1.1" id="Layer_1" xmlns="http://www.w3.org/2000/svg" xmlns:xlink="http://www.w3.org/1999/xlink" x="0px" y="0px"
	 width="30px" height="30px" viewBox="0 0 30 30" enable-background="new 0 0 30 30" xml:space="preserve">
<g>
	<rect x="1" fill="#FFFFFF" width="1" height="30"/>
	<rect x="3" fill="#FFFFFF" width="1" height="30"/>
	<rect x="5" fill="#FFFFFF" width="1" height="30"/>
	<rect x="7" fill="#FFFFFF" width="1" height="30"/>
	<rect x="9" fill="#FFFFFF" width="1" height="30"/>
	<rect x="11" fill="#FFFFFF" width="1" height="30"/>
	<rect x="13" fill="#FFFFFF" width="1" height="30"/>
	<rect x="15" fill="#FFFFFF" width="1" height="30"/>
	<rect x="17" fill="#FFFFFF" width="1" height="30"/>
	<rect x="19" fill="#FFFFFF" width="1" height="30"/>
	<rect x="21" fill="#FFFFFF" width="1" height="30"/>
	<rect x="23" fill="#FFFFFF" width="1" height="30"/>
	<rect x="25" fill="#FFFFFF" width="1" height="30"/>
	<rect x="27" fill="#FFFFFF" width="1" height="30"/>
	<rect x="29" fill="#FFFFFF" width="1" height="30"/>
	<rect y="29" fill="#FFFFFF" width="30" height="1"/>
	<rect y="27" fill="#FFFFFF" width="30" height="1"/>
	<rect y="25" fill="#FFFFFF" width="30" height="1"/>
	<rect y="23" fill="#FFFFFF" width="30" height="1"/>
	<rect y="21" fill="#FFFFFF" width="30" height="1"/>
	<rect y="19" fill="#FFFFFF" width="30" height="1"/>
	<rect y="17" fill="#FFFFFF" width="30" height="1"/>
	<rect y="15" fill="#FFFFFF" width="30" height="1"/>
	<rect y="13" fill="#FFFFFF" width="30" height="1"/>
	<rect y="11" fill="#FFFFFF" width="30" height="1"/>
	<rect y="9" fill="#FFFFFF" width="30" height="1"/>
	<rect y="7" fill="#FFFFFF" width="30" height="1"/>
	<rect y="5" fill="#FFFFFF" width="30" height="1"/>
	<rect y="3" fill="#FFFFFF" width="30" height="1"/>
	<rect y="1" fill="#FFFFFF" width="30" height="1"/>
</g>
</svg>
